<?xml version="1.0" standalone="no"?>
<!DOCTYPE svg PUBLIC "-//W3C//DTD SVG 20010904//EN"
 "http://www.w3.org/TR/2001/REC-SVG-20010904/DTD/svg10.dtd">
<svg version="1.0" xmlns="http://www.w3.org/2000/svg"
 width="512.000000pt" height="512.000000pt" viewBox="0 0 512.000000 512.000000"
 preserveAspectRatio="xMidYMid meet">

<g transform="translate(0.000000,512.000000) scale(0.100000,-0.100000)"
fill="#000000" stroke="none">
<path d="M0 2560 l0 -2560 2560 0 2560 0 0 2560 0 2560 -2560 0 -2560 0 0
-2560z m4347 1164 c57 -47 78 -89 78 -159 0 -71 -21 -112 -78 -159 -35 -28
-45 -31 -115 -32 l-77 -1 -293 -304 -293 -304 -110 0 c-60 0 -109 2 -109 4 0
2 118 126 263 275 145 149 300 309 345 356 l81 85 -6 52 c-10 89 31 164 112
208 21 11 49 15 97 13 57 -3 72 -8 105 -34z m-2060 -779 c61 -31 100 -83 109
-145 l6 -45 229 -120 c126 -66 229 -122 229 -125 0 -4 -18 -30 -40 -59 -21
-30 -41 -58 -42 -63 -2 -5 -104 43 -227 108 l-223 117 -32 -19 c-21 -13 -51
-19 -98 -19 l-66 -1 -144 -156 c-78 -85 -217 -236 -308 -336 l-165 -181 3 -73
c3 -67 1 -77 -27 -120 -42 -66 -95 -91 -177 -86 -78 5 -134 40 -165 105 -18
37 -21 57 -17 115 l5 70 -112 132 -113 131 -60 0 c-48 0 -68 6 -107 30 -132
82 -124 268 15 343 37 20 55 23 102 19 73 -6 120 -35 155 -94 27 -47 35 -113
20 -163 -7 -22 6 -41 107 -160 l115 -135 66 -5 66 -5 242 264 c402 438 387
420 376 448 -32 86 31 204 127 238 57 21 94 18 151 -10z m1296 -231 c340 -76
587 -397 564 -734 -8 -116 -24 -179 -72 -277 l-41 -84 203 -170 c111 -93 210
-180 219 -194 41 -62 -38 -141 -105 -106 -10 6 -107 84 -216 175 -110 92 -202
166 -206 166 -4 0 -28 -18 -55 -39 -66 -56 -174 -107 -273 -132 -170 -43 -376
-12 -531 78 -83 49 -204 170 -253 253 -118 203 -129 469 -27 676 143 291 482
457 793 388z"/>
<path d="M3314 2555 c-205 -44 -381 -221 -423 -423 -25 -122 -7 -262 50 -375
37 -73 153 -193 217 -226 39 -20 164 -63 168 -58 1 1 -34 146 -77 322 -43 176
-79 323 -79 327 0 8 224 62 326 79 84 14 159 1 214 -35 83 -55 128 -233 81
-323 -32 -64 -74 -94 -213 -151 l-26 -11 25 -100 25 -100 54 24 c163 72 283
219 319 392 84 394 -267 744 -661 658z"/>
</g>
</svg>
